{
  "accessors": [
    {
      "bufferView": 2,
      "componentType": 5126,
      "count": 482,
      "max": [
        0.9997599720954895,
        0.9997599720954895,
        0.05000000074505806
      ],
      "min": [
        -0.9997599720954895,
        -0.9997699856758118,
        -0.05000000074505806
      ],
      "type": "VEC3"
    },
    {
      "bufferView": 2,
      "byteOffset": 5784,
      "componentType": 5126,
      "count": 482,
      "max": [
        0.7126294374465942,
        0.7126291990280151,
        0.7014291286468506
      ],
      "min": [
        -0.7126291990280151,
        -0.7126291990280151,
        -0.7014290690422058
      ],
      "type": "VEC3"
    },
    {
      "bufferView": 3,
      "componentType": 5126,
      "count": 482,
      "max": [
        0.701320230960846,
        0.9999065399169922,
        0.7130830883979797,
        -1.0
      ],
      "min": [
        -0.7013210654258728,
        -0.9995696544647217,
        -0.7126771211624146,
        -1.0
      ],
      "type": "VEC4"
    },
    {
      "bufferView": 1,
      "componentType": 5126,
      "count": 482,
      "max": [
        0.9480000138282776,
        0.972350001335144
      ],
      "min": [
        0.006539999973028898,
        0.01906001567840576
      ],
      "type": "VEC2"
    },
    {
      "bufferView": 1,
      "byteOffset": 3856,
      "componentType": 5126,
      "count": 482,
      "max": [
        0.9480000138282776,
        0.972350001335144
      ],
      "min": [
        0.006539999973028898,
        0.01906001567840576
      ],
      "type": "VEC2"
    },
    {
      "bufferView": 0,
      "componentType": 5125,
      "count": 1428,
      "type": "SCALAR"
    }
  ],
  "asset": {
    "extras": {
      "author": "Raakesh.Madan (https://sketchfab.com/Raakesh.Madan)",
      "license": "CC-BY-4.0 (http://creativecommons.org/licenses/by/4.0/)",
      "source": "https://sketchfab.com/3d-models/bitcoin-btc-gold-lowpoly-d544ea193d2a46899c78ea63031f203b",
      "title": "Bitcoin BTC Gold Lowpoly"
    },
    "generator": "Sketchfab-12.68.0",
    "version": "2.0"
  },
  "bufferViews": [
    {
      "buffer": 0,
      "byteLength": 5712,
      "name": "floatBufferViews",
      "target": 34963
    },
    {
      "buffer": 0,
      "byteLength": 7712,
      "byteOffset": 5712,
      "byteStride": 8,
      "name": "floatBufferViews",
      "target": 34962
    },
    {
      "buffer": 0,
      "byteLength": 11568,
      "byteOffset": 13424,
      "byteStride": 12,
      "name": "floatBufferViews",
      "target": 34962
    },
    {
      "buffer": 0,
      "byteLength": 7712,
      "byteOffset": 24992,
      "byteStride": 16,
      "name": "floatBufferViews",
      "target": 34962
    }
  ],
  "buffers": [
    {
      "byteLength": 32704,
      "uri": "scene.bin"
    }
  ],
  "images": [
    {
      "uri": "textures/Material_BTC_baseColor.jpeg"
    },
    {
      "uri": "textures/Material_BTC_normal.jpeg"
    }
  ],
  "materials": [
    {
      "name": "Material_BTC",
      "normalTexture": {
        "index": 1
      },
      "pbrMetallicRoughness": {
        "baseColorTexture": {
          "index": 0
        },
        "metallicFactor": 0.901576,
        "roughnessFactor": 0.463803
      }
    }
  ],
  "meshes": [
    {
      "name": "C______rculo_B______zier_001_0",
      "primitives": [
        {
          "attributes": {
            "NORMAL": 1,
            "POSITION": 0,
            "TANGENT": 2,
            "TEXCOORD_0": 3,
            "TEXCOORD_1": 4
          },
          "indices": 5,
          "material": 0,
          "mode": 4
        }
      ]
    }
  ],
  "nodes": [
    {
      "children": [
        1
      ],
      "matrix": [
        1.0,
        0.0,
        0.0,
        0.0,
        0.0,
        2.220446049250313e-16,
        -1.0,
        0.0,
        0.0,
        1.0,
        2.220446049250313e-16,
        0.0,
        0.0,
        0.0,
        0.0,
        1.0
      ],
      "name": "Sketchfab_model"
    },
    {
      "children": [
        2
      ],
      "matrix": [
        0.009999999776482582,
        0.0,
        0.0,
        0.0,
        0.0,
        2.2204459996194763e-18,
        0.009999999776482582,
        0.0,
        0.0,
        -0.009999999776482582,
        2.2204459996194763e-18,
        0.0,
        0.0,
        0.0,
        0.0,
        1.0
      ],
      "name": "USDRoot"
    },
    {
      "children": [
        3
      ],
      "name": "scene"
    },
    {
      "children": [
        4
      ],
      "matrix": [
        100.0,
        0.0,
        0.0,
        0.0,
        0.0,
        100.0,
        0.0,
        0.0,
        0.0,
        0.0,
        100.0,
        0.0,
        -122.31501007080078,
        0.0,
        -77.55548858642578,
        1.0
      ],
      "name": "Meshes"
    },
    {
      "children": [
        5
      ],
      "matrix": [
        4.440892098500626e-16,
        0.0,
        -1.0,
        0.0,
        -1.0,
        1.6081226229577292e-16,
        -4.440892098500626e-16,
        0.0,
        1.6081226229577292e-16,
        1.0,
        0.0,
        0.0,
        0.44759508967399597,
        2.8756768559283497e-19,
        1.9987049102783203,
        1.0
      ],
      "name": "Sketchfab_model"
    },
    {
      "children": [
        6
      ],
      "name": "Root"
    },
    {
      "children": [
        7
      ],
      "matrix": [
        0.0,
        0.0,
        -1.0,
        0.0,
        0.0,
        1.0,
        0.0,
        0.0,
        1.0,
        0.0,
        0.0,
        0.0,
        1.2231500148773193,
        -0.7755500078201294,
        1.0164799690246582,
        1.0
      ],
      "name": "C______rculo_B______zier_001"
    },
    {
      "children": [
        8
      ],
      "name": "C______rculo_B______zier_001_0"
    },
    {
      "mesh": 0,
      "name": "C______rculo_B______zier_001_0"
    }
  ],
  "samplers": [
    {
      "magFilter": 9729,
      "minFilter": 9987,
      "wrapS": 10497,
      "wrapT": 10497
    }
  ],
  "scene": 0,
  "scenes": [
    {
      "name": "Sketchfab_Scene",
      "nodes": [
        0
      ]
    }
  ],
  "textures": [
    {
      "sampler": 0,
      "source": 0
    },
    {
      "sampler": 0,
      "source": 1
    }
  ]
}
