{
  "accessors": [
    {
      "bufferView": 2,
      "componentType": 5126,
      "count": 7864,
      "max": [
        0.7099416255950928,
        0.7099229097366333,
        0.012055075727403164
      ],
      "min": [
        -0.7099418044090271,
        -0.709922730922699,
        -0.09205172955989838
      ],
      "type": "VEC3"
    },
    {
      "bufferView": 2,
      "byteOffset": 94368,
      "componentType": 5126,
      "count": 7864,
      "max": [
        1.0,
        1.0,
        1.0
      ],
      "min": [
        -1.0,
        -1.0,
        -1.0
      ],
      "type": "VEC3"
    },
    {
      "bufferView": 1,
      "componentType": 5126,
      "count": 7864,
      "max": [
        1.0000001192092896,
        1.000001311302185
      ],
      "min": [
        0.0,
        0.9999991059303284
      ],
      "type": "VEC2"
    },
    {
      "bufferView": 0,
      "componentType": 5125,
      "count": 36096,
      "type": "SCALAR"
    },
    {
      "bufferView": 2,
      "byteOffset": 188736,
      "componentType": 5126,
      "count": 27782,
      "max": [
        0.023594245314598083,
        0.025442831218242645,
        0.0009999992325901985
      ],
      "min": [
        -0.023340269923210144,
        -0.020804576575756073,
        -0.0009999992325901985
      ],
      "type": "VEC3"
    },
    {
      "bufferView": 2,
      "byteOffset": 522120,
      "componentType": 5126,
      "count": 27782,
      "max": [
        1.0,
        1.0,
        1.0
      ],
      "min": [
        -1.0,
        -1.0,
        -1.0
      ],
      "type": "VEC3"
    },
    {
      "bufferView": 1,
      "byteOffset": 62912,
      "componentType": 5126,
      "count": 27782,
      "max": [
        1.0,
        1.0
      ],
      "min": [
        0.0,
        0.0
      ],
      "type": "VEC2"
    },
    {
      "bufferView": 0,
      "byteOffset": 144384,
      "componentType": 5125,
      "count": 53796,
      "type": "SCALAR"
    },
    {
      "bufferView": 2,
      "byteOffset": 855504,
      "componentType": 5126,
      "count": 27782,
      "max": [
        0.023594245314598083,
        0.025442831218242645,
        0.0009999992325901985
      ],
      "min": [
        -0.023340269923210144,
        -0.020804576575756073,
        -0.0009999992325901985
      ],
      "type": "VEC3"
    },
    {
      "bufferView": 2,
      "byteOffset": 1188888,
      "componentType": 5126,
      "count": 27782,
      "max": [
        1.0,
        1.0,
        1.0
      ],
      "min": [
        -1.0,
        -1.0,
        -1.0
      ],
      "type": "VEC3"
    },
    {
      "bufferView": 1,
      "byteOffset": 285168,
      "componentType": 5126,
      "count": 27782,
      "max": [
        1.0,
        1.0
      ],
      "min": [
        0.0,
        0.0
      ],
      "type": "VEC2"
    },
    {
      "bufferView": 0,
      "byteOffset": 359568,
      "componentType": 5125,
      "count": 53796,
      "type": "SCALAR"
    },
    {
      "bufferView": 2,
      "byteOffset": 1522272,
      "componentType": 5126,
      "count": 7864,
      "max": [
        0.7099416255950928,
        0.7099229097366333,
        0.012055075727403164
      ],
      "min": [
        -0.7099418044090271,
        -0.709922730922699,
        -0.09205172955989838
      ],
      "type": "VEC3"
    },
    {
      "bufferView": 2,
      "byteOffset": 1616640,
      "componentType": 5126,
      "count": 7864,
      "max": [
        1.0,
        1.0,
        1.0
      ],
      "min": [
        -1.0,
        -1.0,
        -1.0
      ],
      "type": "VEC3"
    },
    {
      "bufferView": 1,
      "byteOffset": 507424,
      "componentType": 5126,
      "count": 7864,
      "max": [
        1.0000001192092896,
        1.000001311302185
      ],
      "min": [
        0.0,
        0.9999991059303284
      ],
      "type": "VEC2"
    },
    {
      "bufferView": 0,
      "byteOffset": 574752,
      "componentType": 5125,
      "count": 36096,
      "type": "SCALAR"
    },
    {
      "bufferView": 2,
      "byteOffset": 1711008,
      "componentType": 5126,
      "count": 474,
      "max": [
        0.32870185375213623,
        0.5656688809394836,
        0.09130433946847916
      ],
      "min": [
        -0.32870179414749146,
        -0.4780787229537964,
        -0.03989214077591896
      ],
      "type": "VEC3"
    },
    {
      "bufferView": 2,
      "byteOffset": 1716696,
      "componentType": 5126,
      "count": 474,
      "max": [
        0.8173370361328125,
        0.8501078486442566,
        0.9989516735076904
      ],
      "min": [
        -0.8208712935447693,
        -0.7900658845901489,
        -1.0
      ],
      "type": "VEC3"
    },
    {
      "bufferView": 1,
      "byteOffset": 570336,
      "componentType": 5126,
      "count": 474,
      "max": [
        1.0052495002746582,
        1.0004255771636963
      ],
      "min": [
        0.49751317501068115,
        0.0
      ],
      "type": "VEC2"
    },
    {
      "bufferView": 0,
      "byteOffset": 719136,
      "componentType": 5125,
      "count": 696,
      "type": "SCALAR"
    },
    {
      "bufferView": 2,
      "byteOffset": 1722384,
      "componentType": 5126,
      "count": 474,
      "max": [
        0.32870185375213623,
        0.5656688809394836,
        -0.050040241330862045
      ],
      "min": [
        -0.32870179414749146,
        -0.4780787229537964,
        -0.18123596906661987
      ],
      "type": "VEC3"
    },
    {
      "bufferView": 2,
      "byteOffset": 1728072,
      "componentType": 5126,
      "count": 474,
      "max": [
        0.8208698034286499,
        0.7900652885437012,
        0.9989516735076904
      ],
      "min": [
        -0.8173373341560364,
        -0.8501075506210327,
        -1.0
      ],
      "type": "VEC3"
    },
    {
      "bufferView": 1,
      "byteOffset": 574128,
      "componentType": 5126,
      "count": 474,
      "max": [
        1.0052495002746582,
        1.0004255771636963
      ],
      "min": [
        0.49751317501068115,
        0.0
      ],
      "type": "VEC2"
    },
    {
      "bufferView": 0,
      "byteOffset": 721920,
      "componentType": 5125,
      "count": 696,
      "type": "SCALAR"
    },
    {
      "bufferView": 2,
      "byteOffset": 1733760,
      "componentType": 5126,
      "count": 6364,
      "max": [
        0.2858305275440216,
        0.4196365177631378,
        -0.016315774992108345
      ],
      "min": [
        -0.28659874200820923,
        -0.4162719249725342,
        -0.037611499428749084
      ],
      "type": "VEC3"
    },
    {
      "bufferView": 2,
      "byteOffset": 1810128,
      "componentType": 5126,
      "count": 6364,
      "max": [
        1.0,
        0.9999997615814209,
        1.0
      ],
      "min": [
        -1.0,
        -1.0,
        -1.0
      ],
      "type": "VEC3"
    },
    {
      "bufferView": 1,
      "byteOffset": 577920,
      "componentType": 5126,
      "count": 6364,
      "max": [
        1.0,
        0.0
      ],
      "min": [
        0.0,
        0.0
      ],
      "type": "VEC2"
    },
    {
      "bufferView": 0,
      "byteOffset": 724704,
      "componentType": 5125,
      "count": 9600,
      "type": "SCALAR"
    },
    {
      "bufferView": 2,
      "byteOffset": 1886496,
      "componentType": 5126,
      "count": 7015,
      "max": [
        0.28651732206344604,
        0.4169120788574219,
        -0.0455315038561821
      ],
      "min": [
        -0.28813043236732483,
        -0.4199342429637909,
        -0.0668272003531456
      ],
      "type": "VEC3"
    },
    {
      "bufferView": 2,
      "byteOffset": 1970676,
      "componentType": 5126,
      "count": 7015,
      "max": [
        1.0,
        0.9999995827674866,
        1.0
      ],
      "min": [
        -1.0,
        -1.0,
        -1.0
      ],
      "type": "VEC3"
    },
    {
      "bufferView": 1,
      "byteOffset": 628832,
      "componentType": 5126,
      "count": 7015,
      "max": [
        1.0,
        0.0
      ],
      "min": [
        0.0,
        0.0
      ],
      "type": "VEC2"
    },
    {
      "bufferView": 0,
      "byteOffset": 763104,
      "componentType": 5125,
      "count": 9804,
      "type": "SCALAR"
    },
    {
      "bufferView": 2,
      "byteOffset": 2054856,
      "componentType": 5126,
      "count": 7864,
      "max": [
        0.7099416255950928,
        0.7099229097366333,
        0.012055075727403164
      ],
      "min": [
        -0.7099418044090271,
        -0.709922730922699,
        -0.09205172955989838
      ],
      "type": "VEC3"
    },
    {
      "bufferView": 2,
      "byteOffset": 2149224,
      "componentType": 5126,
      "count": 7864,
      "max": [
        1.0,
        1.0,
        1.0
      ],
      "min": [
        -1.0,
        -1.0,
        -1.0
      ],
      "type": "VEC3"
    },
    {
      "bufferView": 1,
      "byteOffset": 684952,
      "componentType": 5126,
      "count": 7864,
      "max": [
        1.0000001192092896,
        1.000001311302185
      ],
      "min": [
        0.0,
        0.9999991059303284
      ],
      "type": "VEC2"
    },
    {
      "bufferView": 0,
      "byteOffset": 802320,
      "componentType": 5125,
      "count": 36096,
      "type": "SCALAR"
    }
  ],
  "asset": {
    "extras": {
      "author": "Nofil.Khan (https://sketchfab.com/Nofil.Khan)",
      "license": "CC-BY-4.0 (http://creativecommons.org/licenses/by/4.0/)",
      "source": "https://sketchfab.com/3d-models/ethereum-bitcoin-and-gold-f2d748b2270a4bcea1e853eed8135a8d",
      "title": "Ethereum ,bitcoin and Gold"
    },
    "generator": "Sketchfab-13.74.0",
    "version": "2.0"
  },
  "bufferViews": [
    {
      "buffer": 0,
      "byteLength": 946704,
      "name": "floatBufferViews",
      "target": 34963
    },
    {
      "buffer": 0,
      "byteLength": 747864,
      "byteOffset": 946704,
      "byteStride": 8,
      "name": "floatBufferViews",
      "target": 34962
    },
    {
      "buffer": 0,
      "byteLength": 2243592,
      "byteOffset": 1694568,
      "byteStride": 12,
      "name": "floatBufferViews",
      "target": 34962
    }
  ],
  "buffers": [
    {
      "byteLength": 3938160,
      "uri": "scene.bin"
    }
  ],
  "materials": [
    {
      "doubleSided": true,
      "name": "M_Gold",
      "pbrMetallicRoughness": {
        "baseColorFactor": [
          0.991102,
          0.723055,
          0.168269,
          1.0
        ],
        "metallicFactor": 0.8954955037119458,
        "roughnessFactor": 0.22667645574545964
      }
    }
  ],
  "meshes": [
    {
      "name": "Coin.002_M_Gold_0",
      "primitives": [
        {
          "attributes": {
            "NORMAL": 1,
            "POSITION": 0,
            "TEXCOORD_0": 2
          },
          "indices": 3,
          "material": 0,
          "mode": 4
        }
      ]
    },
    {
      "name": "crest_M_Gold_0",
      "primitives": [
        {
          "attributes": {
            "NORMAL": 5,
            "POSITION": 4,
            "TEXCOORD_0": 6
          },
          "indices": 7,
          "material": 0,
          "mode": 4
        }
      ]
    },
    {
      "name": "crest.001_M_Gold_0",
      "primitives": [
        {
          "attributes": {
            "NORMAL": 9,
            "POSITION": 8,
            "TEXCOORD_0": 10
          },
          "indices": 11,
          "material": 0,
          "mode": 4
        }
      ]
    },
    {
      "name": "Coin_M_Gold_0",
      "primitives": [
        {
          "attributes": {
            "NORMAL": 13,
            "POSITION": 12,
            "TEXCOORD_0": 14
          },
          "indices": 15,
          "material": 0,
          "mode": 4
        }
      ]
    },
    {
      "name": "EhiriumLogo_M_Gold_0",
      "primitives": [
        {
          "attributes": {
            "NORMAL": 17,
            "POSITION": 16,
            "TEXCOORD_0": 18
          },
          "indices": 19,
          "material": 0,
          "mode": 4
        }
      ]
    },
    {
      "name": "EhiriumLogo.001_M_Gold_0",
      "primitives": [
        {
          "attributes": {
            "NORMAL": 21,
            "POSITION": 20,
            "TEXCOORD_0": 22
          },
          "indices": 23,
          "material": 0,
          "mode": 4
        }
      ]
    },
    {
      "name": "bitcoin_M_Gold_0",
      "primitives": [
        {
          "attributes": {
            "NORMAL": 25,
            "POSITION": 24,
            "TEXCOORD_0": 26
          },
          "indices": 27,
          "material": 0,
          "mode": 4
        }
      ]
    },
    {
      "name": "bitcoin.001_M_Gold_0",
      "primitives": [
        {
          "attributes": {
            "NORMAL": 29,
            "POSITION": 28,
            "TEXCOORD_0": 30
          },
          "indices": 31,
          "material": 0,
          "mode": 4
        }
      ]
    },
    {
      "name": "Coin.001_M_Gold_0",
      "primitives": [
        {
          "attributes": {
            "NORMAL": 33,
            "POSITION": 32,
            "TEXCOORD_0": 34
          },
          "indices": 35,
          "material": 0,
          "mode": 4
        }
      ]
    }
  ],
  "nodes": [
    {
      "children": [
        1
      ],
      "matrix": [
        1.0,
        0.0,
        0.0,
        0.0,
        0.0,
        2.220446049250313e-16,
        -1.0,
        0.0,
        0.0,
        1.0,
        2.220446049250313e-16,
        0.0,
        0.0,
        0.0,
        0.0,
        1.0
      ],
      "name": "Sketchfab_model"
    },
    {
      "children": [
        2
      ],
      "matrix": [
        0.009999999776482582,
        0.0,
        0.0,
        0.0,
        0.0,
        0.0,
        0.009999999776482582,
        0.0,
        0.0,
        -0.009999999776482582,
        0.0,
        0.0,
        0.0,
        0.0,
        0.0,
        1.0
      ],
      "name": "fd0bbeb0c2214367b7a87b8c05265ece.fbx"
    },
    {
      "children": [
        3,
        6,
        8,
        15,
        22,
        29
      ],
      "name": "RootNode"
    },
    {
      "children": [
        4
      ],
      "matrix": [
        -29.08647719990347,
        -5.518906457566863,
        -95.51711910171437,
        0.0,
        56.63930913109449,
        79.46723428563203,
        -21.83912397841966,
        0.0,
        77.11008775993375,
        -60.45246356562044,
        -19.98834696773717,
        0.0,
        407.6245422363281,
        590.38623046875,
        -100.54539489746094,
        1.0
      ],
      "name": "Light"
    },
    {
      "children": [
        5
      ],
      "matrix": [
        1.0,
        0.0,
        0.0,
        0.0,
        0.0,
        2.220446049250313e-16,
        1.0,
        0.0,
        0.0,
        -1.0,
        2.220446049250313e-16,
        0.0,
        0.0,
        0.0,
        0.0,
        1.0
      ],
      "name": "Object_4"
    },
    {
      "name": "Object_5"
    },
    {
      "children": [
        7
      ],
      "matrix": [
        -34.947467512458985,
        -43.208454049856236,
        -83.13665865962555,
        0.0,
        -16.743854958971458,
        90.18331053254933,
        -39.83232132957736,
        0.0,
        92.1863213040772,
        -0.00010601240942598178,
        -38.751544026144444,
        0.0,
        186.40029907226563,
        252.179931640625,
        461.76873779296875,
        1.0
      ],
      "name": "Camera"
    },
    {
      "name": "Object_7"
    },
    {
      "children": [
        9,
        11,
        13
      ],
      "matrix": [
        75.4665370185192,
        -3.0847736431083446,
        -3.6640149832208966,
        0.0,
        -9.792116187191823e-07,
        61.63791957171334,
        -51.89364794611705,
        0.0,
        1.1963164782798859,
        12.139888574234947,
        14.41944253280807,
        0.0,
        69.38681030273438,
        4.648322105407715,
        -36.43197250366211,
        1.0
      ],
      "name": "Gold"
    },
    {
      "children": [
        10
      ],
      "matrix": [
        1.322429895401001,
        -1.984715634895107e-09,
        -1.6300206943396275e-32,
        0.0,
        1.8626453859136235e-09,
        1.241093635559077,
        1.1222338391903011e-07,
        0.0,
        -7.185146132097087e-16,
        -4.787513072829818e-07,
        5.294575691223123,
        0.0,
        -1.1920928955078125e-07,
        -5.960464477539063e-08,
        0.1747356653213501,
        1.0
      ],
      "name": "Coin.002"
    },
    {
      "mesh": 0,
      "name": "Coin.002_M_Gold_0"
    },
    {
      "children": [
        12
      ],
      "matrix": [
        24.422866821289063,
        -1.1102230246251565e-16,
        -1.6844451167230545e-08,
        0.0,
        -1.2105598925757848e-17,
        22.920734405517578,
        -1.686232522501996e-07,
        0.0,
        4.470348579235992e-08,
        4.768371653008031e-07,
        64.81584167480469,
        0.0,
        -2.384185791015625e-07,
        -2.9802322387695313e-08,
        0.019771337509155273,
        1.0
      ],
      "name": "crest"
    },
    {
      "mesh": 1,
      "name": "crest_M_Gold_0"
    },
    {
      "children": [
        14
      ],
      "matrix": [
        24.422866821289063,
        -1.1102230246251565e-16,
        -1.6844451167230545e-08,
        0.0,
        -1.2105598925757848e-17,
        22.920734405517578,
        -1.686232522501996e-07,
        0.0,
        4.470348579235992e-08,
        4.768371653008031e-07,
        64.81584167480469,
        0.0,
        -1.1920928955078125e-07,
        -2.9802322387695313e-08,
        -0.08120346069335938,
        1.0
      ],
      "name": "crest.001"
    },
    {
      "mesh": 2,
      "name": "crest.001_M_Gold_0"
    },
    {
      "children": [
        16,
        18,
        20
      ],
      "matrix": [
        75.19649100591401,
        -7.721668333943203,
        -2.000367088128985,
        0.0,
        3.113414669539964,
        47.214657473790076,
        -65.21706345389788,
        0.0,
        1.8538303604983462,
        15.182842704356123,
        11.080297427292876,
        0.0,
        -112.93883514404297,
        27.741458892822266,
        0.5014252066612244,
        1.0
      ],
      "name": "Etheuem"
    },
    {
      "children": [
        17
      ],
      "matrix": [
        1.322429895401001,
        2.081668171172168e-17,
        -9.304682996313928e-10,
        0.0,
        -1.9536348411151747e-17,
        1.241093635559082,
        0.0,
        0.0,
        3.72528998158217e-09,
        5.864067055663967e-26,
        5.2945756912231445,
        0.0,
        -1.1920928955078125e-07,
        -8.940696716308594e-08,
        0.17473548650741577,
        1.0
      ],
      "name": "Coin"
    },
    {
      "mesh": 3,
      "name": "Coin_M_Gold_0"
    },
    {
      "children": [
        19
      ],
      "matrix": [
        1.322429895401001,
        2.081668171172168e-17,
        -9.304682996313928e-10,
        0.0,
        -1.9536348411151747e-17,
        1.241093635559082,
        0.0,
        0.0,
        3.72528998158217e-09,
        5.864067055663967e-26,
        5.2945756912231445,
        0.0,
        -1.1920928955078125e-07,
        -8.940696716308594e-08,
        0.17473548650741577,
        1.0
      ],
      "name": "EhiriumLogo"
    },
    {
      "mesh": 4,
      "name": "EhiriumLogo_M_Gold_0"
    },
    {
      "children": [
        21
      ],
      "matrix": [
        1.322429895401001,
        2.081668171172168e-17,
        -9.304682996313928e-10,
        0.0,
        -1.9536348411151747e-17,
        1.241093635559082,
        0.0,
        0.0,
        3.72528998158217e-09,
        5.864067055663967e-26,
        5.2945756912231445,
        0.0,
        -1.1920928955078125e-07,
        -8.940696716308594e-08,
        0.17473548650741577,
        1.0
      ],
      "name": "EhiriumLogo.001"
    },
    {
      "mesh": 5,
      "name": "EhiriumLogo.001_M_Gold_0"
    },
    {
      "children": [
        23,
        25,
        27
      ],
      "matrix": [
        75.1913706323218,
        3.985326831230942,
        -6.965198940094838,
        0.0,
        -8.473452587551101,
        48.80774772090789,
        -63.54674019918941,
        0.0,
        0.26876388173080334,
        14.994736715038183,
        11.481029025769491,
        0.0,
        -19.511634826660156,
        -3.1031606197357178,
        -0.34450289607048035,
        1.0
      ],
      "name": "Bitcoin"
    },
    {
      "children": [
        24
      ],
      "matrix": [
        1.322429895401001,
        3.969430076300463e-09,
        -9.304682579980298e-10,
        0.0,
        -3.725290278593313e-09,
        1.2410938739776547,
        1.261952116138332e-07,
        0.0,
        3.725291430834595e-09,
        -5.38355811558466e-07,
        5.294575691223117,
        0.0,
        -2.9802322387695313e-08,
        -5.4016709327697754e-08,
        0.17473554611206055,
        1.0
      ],
      "name": "bitcoin"
    },
    {
      "mesh": 6,
      "name": "bitcoin_M_Gold_0"
    },
    {
      "children": [
        26
      ],
      "matrix": [
        1.322429895401001,
        3.969430076300463e-09,
        -9.304682579980298e-10,
        0.0,
        -3.725290278593313e-09,
        1.2410938739776547,
        1.261952116138332e-07,
        0.0,
        3.725291430834595e-09,
        -5.38355811558466e-07,
        5.294575691223117,
        0.0,
        -2.9802322387695313e-08,
        -5.4016709327697754e-08,
        0.17473554611206055,
        1.0
      ],
      "name": "bitcoin.001"
    },
    {
      "mesh": 7,
      "name": "bitcoin.001_M_Gold_0"
    },
    {
      "children": [
        28
      ],
      "matrix": [
        1.322429895401001,
        3.969430076300463e-09,
        -9.304682579980298e-10,
        0.0,
        -3.725290278593313e-09,
        1.2410938739776547,
        1.261952116138332e-07,
        0.0,
        3.725291430834595e-09,
        -5.38355811558466e-07,
        5.294575691223117,
        0.0,
        -2.9802322387695313e-08,
        -5.4016709327697754e-08,
        0.17473554611206055,
        1.0
      ],
      "name": "Coin.001"
    },
    {
      "mesh": 8,
      "name": "Coin.001_M_Gold_0"
    },
    {
      "children": [
        30
      ],
      "matrix": [
        99.36589053907048,
        7.23724210405481,
        8.604773332561413,
        0.0,
        -11.2436558724224,
        63.95916450049241,
        76.04475970782926,
        0.0,
        2.236834867330728e-06,
        -76.53004379409597,
        64.3673239840973,
        0.0,
        -47.625675201416016,
        174.83224487304688,
        173.2957305908203,
        1.0
      ],
      "name": "Area"
    },
    {
      "children": [
        31
      ],
      "matrix": [
        1.0,
        0.0,
        0.0,
        0.0,
        0.0,
        2.220446049250313e-16,
        1.0,
        0.0,
        0.0,
        -1.0,
        2.220446049250313e-16,
        0.0,
        0.0,
        0.0,
        0.0,
        1.0
      ],
      "name": "Object_30"
    },
    {
      "name": "Object_31"
    }
  ],
  "scene": 0,
  "scenes": [
    {
      "name": "Sketchfab_Scene",
      "nodes": [
        0
      ]
    }
  ]
}
