<svg xmlns="http://www.w3.org/2000/svg" xml:space="preserve" width="2000" height="869" data-id="lg_VbEq3KNp4YfkZCKP2g" data-version="1" viewBox="590 0 3000 1000">
  <g data-padding="20">
    <g transform="translate(401.688 295.898)scale(.978)">
      <filter id="a" width="140%" height="140%" x="-20%" y="-20%">
        <feGaussianBlur in="SourceAlpha"/>
        <feOffset result="oBlur"/>
        <feFlood flood-color="#000" flood-opacity="1"/>
        <feComposite in2="oBlur" operator="in"/>
        <feMerge>
          <feMergeNode/>
          <feMergeNode in="SourceGraphic"/>
        </feMerge>
      </filter>
      <g filter="url(#a)">
        <rect width="686" height="868.97" x="239.732" y="-292.765" fill="none" rx="0" ry="0"/>
        <path fill="#af00ff" d="M335.962 385.1q-7.69 0-10.77-5.39-3.07-5.38-3.07-11.53.76-13.08 6.15-14.61 5.38-1.54 13.07-1.54 20.76 0 31.53-8.46t17.3-22.3q6.54-13.84 12.69-28.45l134.58-318.37q7.69-18.46 3.07-28.07-4.61-9.61-15.38-13.84-10.76-4.23-23.84-6.54-11.53-2.3-15.38-4.23-3.84-1.92-3.84-13.45 0-13.08 9.23-14.23 9.22-1.15 21.53-1.15 31.53 0 53.83 6.15t38.45 23.45 29.99 51.91l129.19 318.37q5.38 13.07 11.54 26.91 6.15 13.84 16.53 22.69 10.38 8.84 26.53 9.61 8.46 0 13.46 1.54 5 1.53 5.76 14.61 0 6.15-3.46 11.53-3.46 5.39-10.38 5.39-24.61-1.54-43.06-1.93-18.46-.38-41.53-.38-45.37 0-95.35 2.31-7.69 0-10.77-5.39-3.08-5.38-3.08-11.53.77-13.08 6.16-14.61 5.38-1.54 13.07-1.54 37.68 0 41.14-13.84 3.46-13.85-7.3-45.37l-26.15-63.83h-189.94q-11.54 29.22-16.54 42.29-5 13.08-6.15 16.92-1.15 3.85-1.92 4.62-8.46 26.14-8.84 38.83-.39 12.69 12.3 16.53 12.69 3.85 42.68 3.85 8.46 0 13.46 1.54 4.99 1.53 5.76 14.61 0 6.15-3.46 11.53-3.46 5.39-10.38 5.39-24.61-1.54-42.68-1.93-18.07-.38-41.14-.38-15.38 0-25.76.38-10.38.39-21.15.77-10.76.39-27.68 1.16M563.582-1.71l-81.51 197.63h161.49L565.892-1.71Z"/>
      </g>
    </g>
    <g fill="#fff" stroke="#890aff" stroke-width="3" transform="translate(430.09 710.403)scale(.978)">
      <path d="M128.234 141.72h908.996"/>
      undefined undefined
    </g>
    <path fill="#890aff" d="M627.622 700.263q22.462 7.547 31.447 23.898l4.493 2.516 58.4 13.836-22.462-11.32a67.385 37.734 0 0 1-26.953-25.157l4.492-30.187v-1.257l22.461 7.546q17.97 8.805 26.954 21.383 8.985 18.867 2.246 37.734v2.515q44.924 10.064 96.586 16.352l-22.462-7.547a67.385 37.734 0 0 1-31.447-22.64l-6.738-25.157v-7.546l17.97 3.773q22.461 6.289 35.938 17.61 15.723 15.094 17.97 31.445v11.32l101.077 7.546-4.492-2.515-20.215-3.773a67.385 37.734 0 0 1-40.432-22.64l-11.23-23.9v-2.515h11.23q33.692 5.031 51.662 17.61a224.617 125.78 0 0 1 29.2 38.992l103.324-2.516-33.692-5.031a67.385 37.734 0 0 1-38.185-12.578l-24.708-28.93v-3.773h24.708q22.461 2.516 40.43 11.32 29.2 15.093 42.678 35.219v2.515q49.415-5.03 94.339-13.836h-15.724a89.847 50.312 0 0 1-49.415-10.062l-29.2-17.61-11.231-12.577h8.985q35.938-5.032 62.892 5.03 26.953 7.548 42.678 21.383l11.23 10.063 80.862-20.125h-22.462a67.385 37.734 0 0 1-40.43-5.031 224.617 125.78 0 0 1-47.17-25.156l44.923-6.289q15.723 0 29.2 2.515 35.939 7.547 60.647 25.156h4.493q33.692-8.804 62.892-22.64s4.493 2.516-6.738 12.578l-22.462 6.289q-17.97 8.805-38.185 12.578l-4.492 5.032q6.738 20.124-2.247 40.25a67.385 37.734 0 0 1-29.2 23.897l-20.215 7.547h-2.247l-6.739-33.96q2.247-16.352 24.708-27.673l11.23-6.288-4.491 1.257q-38.185 10.063-78.616 17.61l-4.492 2.516q0 20.124-13.477 37.734a89.847 50.312 0 0 1-35.94 21.382l-22.461 6.288-2.246-12.577 4.492-22.64a67.385 37.734 0 0 1 33.692-22.641l8.985-3.773-89.847 10.062q0 8.804-8.984 18.867l-26.953 25.156-53.91 12.578q0-21.383 20.216-37.734a67.385 37.734 0 0 1 31.447-15.093l8.984-2.516h-87.599l-17.97 22.64a89.847 50.312 0 0 1-83.108 25.157h-4.492l8.985-17.61 22.462-18.867q15.723-7.547 33.692-10.063l17.97-2.515h-4.493l-83.108-7.547h-6.738a224.617 125.78 0 0 1-47.17 31.446 89.847 50.312 0 0 1-49.415 5.03h-20.216l13.477-13.835a89.847 50.312 0 0 1 35.939-20.125l38.185-5.031h13.476l-4.493-1.258-83.108-16.352h-6.738a224.617 125.78 0 0 1-51.662 25.156 67.385 37.734 0 0 1-51.662 1.259l-17.969-2.517 26.954-18.866q24.708-12.578 56.154-10.063h26.953-2.245l-38.184-10.062h-4.492l-33.692-2.516-22.463-7.547-17.97-13.836-8.984-8.804h13.477q22.461 0 44.923 6.289"/>
  </g>
 <text x="1500" y="700" font-family="poppins" font-size="500" fill="#fff" font-weight="bold">ANKA</text>
</svg>
