<svg xmlns="http://www.w3.org/2000/svg" viewBox="0 0 600 200" width="200" height="200">
    <g transform="translate(-250, 0)"> <!-- Geser ke kiri dengan translate -->
        <g transform="scale(.978)">
            <g>
                <rect width="686" height="868.97" x="239.732" y="-292.765" fill="none" rx="0" ry="0"/>
                <path fill="#af00ff" d="M335.962 385.1q-7.69 0-10.77-5.39-3.07-5.38-3.07-11.53.76-13.08 6.15-14.61 5.38-1.54 13.07-1.54 20.76 0 31.53-8.46t17.3-22.3q6.54-13.84 12.69-28.45l134.58-318.37q7.69-18.46 3.07-28.07-4.61-9.61-15.38-13.84-10.76-4.23-23.84-6.54-11.53-2.3-15.38-4.23-3.84-1.92-3.84-13.45 0-13.08 9.23-14.23 9.22-1.15 21.53-1.15 31.53 0 53.83 6.15t38.45 23.45 29.99 51.91l129.19 318.37q5.38 13.07 11.54 26.91 6.15 13.84 16.53 22.69 10.38 8.84 26.53 9.61 8.46 0 13.46 1.54 5 1.53 5.76 14.61 0 6.15-3.46 11.53-3.46 5.39-10.38 5.39-24.61-1.54-43.06-1.93-18.46-.38-41.53-.38-45.37 0-95.35 2.31-7.69 0-10.77-5.39-3.08-5.38-3.08-11.53.77-13.08 6.16-14.61 5.38-1.54 13.07-1.54 37.68 0 41.14-13.84 3.46-13.85-7.3-45.37l-26.15-63.83h-189.94q-11.54 29.22-16.54 42.29-5 13.08-6.15 16.92-1.15 3.85-1.92 4.62-8.46 26.14-8.84 38.83-.39 12.69 12.3 16.53 12.69 3.85 42.68 3.85 8.46 0 13.46 1.54 4.99 1.53 5.76 14.61 0 6.15-3.46 11.53-3.46 5.39-10.38 5.39-24.61-1.54-42.68-1.93-18.07-.38-41.14-.38-15.38 0-25.76.38-10.38.39-21.15.77-10.76.39-27.68 1.16M563.582-1.71l-81.51 197.63h161.49L565.892-1.71Z"/>
            </g>
        </g>
        <g fill="#fff" stroke="#890aff" stroke-width="3" transform="scale(.978)">
            <path d="M128.234 141.72h908.996"/>
            <path fill="transparent" stroke="transparent" d="M545.5 0h909v869h-909z"/>
        </g>
    </g>
</svg>
